<svg version="1.1" id="Layer_1" xmlns="http://www.w3.org/2000/svg" xmlns:xlink="http://www.w3.org/1999/xlink" x="0px" y="0px" viewBox="0 0 193.3887 144.5755" enable-background="new 0 0 193.3887 144.5755" xml:space="preserve">
<g>
<path d="M111.3696,132.8315v-3.75h-40.627c-0.3178,1.2896-0.7288,2.542-1.2267,3.75H111.3696z" id="id_197"></path>
<path d="M168.3111,91.8052l2.5424-6.057l-0.0721-0.2044l0.0241-0.0063l-5.3214-20.4727h-27.2811
		c-2.9824,0-5.3916,3.4214-7.9414,7.0435c-3.0107,4.2764-6.4238,9.123-11.7256,9.123H95.5928l-1.2393,2.1835
		c0,0-0.0963,0.0022-0.258,0.0059l8.4468,25.1687c0.9355,2.7852,0.7295,5.7681-0.5791,8.3989
		c-1.3076,2.6304-3.5625,4.5942-6.3486,5.5293c-1.1328,0.3804-2.3115,0.5737-3.501,0.5737c-4.7314,0-8.9219-3.0151-10.4268-7.5024
		l-9.2197-27.4688c-2.2275-0.1411-4.3906-0.6797-6.4443-1.6064c-1.4713-0.6605-2.8163-1.5113-4.0413-2.4968
		c-0.4135,0.0027-0.7986,0.0045-1.1242,0.0045c-6.7463,0-13.2237-6.6118-13.2237-6.6118h-20.78l3.7782,22.3543l0.1476,0.3104
		c4.0892-2.5544,8.9177-4.0354,14.0944-4.0354c14.7166,0,26.6469,11.9303,26.6469,26.6469c0,0.9788-0.0565,1.9442-0.1593,2.8956
		c14.7123,0,31.2737,0,39.5082,0c16.75,0,5.75-32,25-33.5c6.5371-0.5094,10.7634,1.4825,13.5002,4.3321
		c4.7337-2.9893,10.3328-4.7271,16.3332-4.7271C166.5822,91.6865,167.4504,91.7324,168.3111,91.8052z" id="id_198"></path>
<path d="M66.7627,122.6851c0-12.0698-9.8179-21.8885-21.8876-21.8885c-12.0698,0-21.8904,9.8188-21.8904,21.8885
		c0,12.0697,9.8206,21.8903,21.8904,21.8903C56.9448,144.5754,66.7627,134.7547,66.7627,122.6851z M44.876,135.0582
		c-6.8253,0-12.3745-5.5502-12.3745-12.3746c0-6.8197,5.5492-12.3699,12.3745-12.3699c6.8197,0,12.3699,5.5502,12.3699,12.3699
		C57.2459,129.508,51.6957,135.0582,44.876,135.0582z" id="id_199"></path>
<ellipse transform="matrix(0.9732 -0.2298 0.2298 0.9732 -26.9872 13.5919)" cx="44.8737" cy="122.6859" rx="4.6105" ry="4.6105" id="id_200"></ellipse>
<path d="M165.7029,94.6865c-15.2654,0-27.6857,12.4197-27.6858,27.6856v0.0002h5.4825c0,12.2625,9.9407,22.2032,22.2032,22.2032
		s22.2032-9.9407,22.2032-22.2032h5.4826v-0.0002C193.3886,107.1061,180.9683,94.6865,165.7029,94.6865z M165.7029,137.3579
		c-8.2763,0-14.9857-6.7093-14.9857-14.9856s6.7094-14.9857,14.9857-14.9857c8.2764,0,14.9857,6.7093,14.9857,14.9857
		S173.9792,137.3579,165.7029,137.3579z" id="id_201"></path>
<ellipse transform="matrix(0.7071 -0.7071 0.7071 0.7071 -37.997 153.0117)" cx="165.7029" cy="122.3723" rx="5.3455" ry="5.3455" id="id_202"></ellipse>
<path d="M41.4695,45.0192c-0.9482-3.1608-4.4241-5.7469-7.7241-5.7469H12.6793c-3.3,0-7.1129,2.46-8.473,5.4666l-3.2132,7.1028
		c-0.2583,0.571-0.4506,1.2244-0.6093,1.9066h43.7043L41.4695,45.0192z" id="id_203"></path>
<path d="M1.043,62.7521l3.1136,6.7189c1.3875,2.9941,5.2228,5.4438,8.5228,5.4438h21.4955c3.3,0,7.0544-2.4856,8.3433-5.5235
		l1.3254-3.1242c1.1297-2.6628,1.4825-6.8875,0.914-10.019H0.0289C-0.105,58.5613,0.2254,60.988,1.043,62.7521z" id="id_204"></path>
<path d="M119.9027,58.2721l-13.667,5.334c-0.2605,0.1016-0.5245,0.1892-0.7909,0.2672l-8.5466,15.0583h21.6378
		c4.1084,0,7.0244-4.1421,9.8447-8.1475c2.7754-3.9424,5.6465-8.019,9.8223-8.019h26.6833l-6.0808-23.394
		c-0.0693-0.2661-0.2109-0.5078-0.4082-0.6992l-16.5-16c-0.4834-0.4683-1.2158-0.5571-1.7949-0.2222
		c-0.5801,0.3359-0.8672,1.0161-0.7031,1.6665l8.4993,33.6277l-15.6067,0.3964l-6.4181-7.5452
		C125.4515,53.9417,123.2587,56.9622,119.9027,58.2721z M112.9113,73.6649c-1.7259,0-3.125-1.3991-3.125-3.125
		s1.3991-3.125,3.125-3.125s3.125,1.3991,3.125,3.125S114.6372,73.6649,112.9113,73.6649z M160.3986,57.4264l-4.8318,0.1227
		l-6.2427-23.4973l6.6836,6.4808L160.3986,57.4264z M143.6024,28.5038l2.9333,2.8442l6.975,26.2533l-2.5377,0.0645L143.6024,28.5038
		z" id="id_205"></path>
<path d="M74.6268,85.1271l9.9038,29.5078c1.1221,3.3447,4.2393,5.4565,7.583,5.4565c0.8438,0,1.7021-0.1343,2.5469-0.418
		c4.1885-1.4058,6.4443-5.9409,5.0381-10.1294l-11.5-34.2642l7.8755-17.4758l2.7524,2.1101
		c1.1533,0.8838,2.5469,1.3418,3.9561,1.3418c0.7959,0,1.5977-0.1465,2.3623-0.4448l13.667-5.3335
		c3.3438-1.3052,4.9971-5.0742,3.6924-8.4185c-1.3066-3.3438-5.0742-4.9995-8.4189-3.6919l-10.2549,4.002l-10.5527-8.0901
		c-1.2866-1.2733-2.8042-2.3547-4.5518-3.1423c-7.8525-3.5371-17.0898-0.0393-20.6289,7.8152l-8.6548,19.21
		c-3.5405,7.8501-0.0405,17.0908,7.8149,20.6173C69.6527,84.8606,72.1756,85.2794,74.6268,85.1271z" id="id_206"></path>
<path d="M90.5902,33.6819c8.9028,3.8481,19.2363-0.24,23.0889-9.1449c3.8457-8.8983-0.2422-19.2362-9.146-23.089
		c-8.9009-3.8527-19.2397,0.249-23.0913,9.145C77.5882,19.5002,81.6898,29.8382,90.5902,33.6819z" id="id_207"></path>
<path d="M178.2285,77.4149c4.5563,0,4.5563-16.5,0-16.5s-8.25,3.6937-8.25,8.25S173.6722,77.4149,178.2285,77.4149z" id="id_208"></path>
</g>
</svg>